<svg width="44" height="44" viewBox="0 0 44 44" fill="none" xmlns="http://www.w3.org/2000/svg">
<rect x="1.25" y="1.25" width="41.5" height="41.5" rx="20.75" stroke="#F5F5F7" stroke-width="2.5"/>
<path d="M32 21.9995C32 22.2205 31.9122 22.4325 31.7559 22.5888C31.5997 22.7451 31.3877 22.8328 31.1667 22.8328H14.8454L20.9233 28.9097C21.0007 28.9872 21.0621 29.0791 21.104 29.1802C21.1459 29.2814 21.1675 29.3898 21.1675 29.4993C21.1675 29.6088 21.1459 29.7172 21.104 29.8184C21.0621 29.9195 21.0007 30.0114 20.9233 30.0889C20.8459 30.1663 20.7539 30.2277 20.6528 30.2696C20.5516 30.3115 20.4432 30.3331 20.3337 30.3331C20.2242 30.3331 20.1158 30.3115 20.0146 30.2696C19.9135 30.2277 19.8216 30.1663 19.7442 30.0889L12.2444 22.5891C12.1669 22.5117 12.1055 22.4198 12.0635 22.3186C12.0216 22.2175 12 22.109 12 21.9995C12 21.89 12.0216 21.7816 12.0635 21.6804C12.1055 21.5793 12.1669 21.4874 12.2444 21.41L19.7442 13.9102C19.9005 13.7539 20.1126 13.666 20.3337 13.666C20.5548 13.666 20.7669 13.7539 20.9233 13.9102C21.0796 14.0666 21.1675 14.2787 21.1675 14.4998C21.1675 14.7209 21.0796 14.933 20.9233 15.0893L14.8454 21.1662H31.1667C31.3877 21.1662 31.5997 21.254 31.7559 21.4103C31.9122 21.5666 32 21.7785 32 21.9995Z" stroke="#F5F5F7" stroke-width="1.7"/>
</svg>
