<svg width="44" height="44" viewBox="0 0 44 44" fill="none" xmlns="http://www.w3.org/2000/svg">
<rect x="-1.25" y="1.25" width="41.5" height="41.5" rx="20.75" transform="matrix(-1 0 0 1 41.5 0)" stroke="#F5F5F7" stroke-width="2.5"/>
<path d="M12 21.9995C12 22.2205 12.0878 22.4325 12.2441 22.5888C12.4003 22.7451 12.6123 22.8328 12.8333 22.8328H29.1546L23.0767 28.9097C22.9993 28.9872 22.9379 29.0791 22.896 29.1802C22.8541 29.2814 22.8325 29.3898 22.8325 29.4993C22.8325 29.6088 22.8541 29.7172 22.896 29.8184C22.9379 29.9195 22.9993 30.0114 23.0767 30.0889C23.1541 30.1663 23.2461 30.2277 23.3472 30.2696C23.4484 30.3115 23.5568 30.3331 23.6663 30.3331C23.7758 30.3331 23.8842 30.3115 23.9854 30.2696C24.0865 30.2277 24.1784 30.1663 24.2558 30.0889L31.7556 22.5891C31.8331 22.5117 31.8945 22.4198 31.9365 22.3186C31.9784 22.2175 32 22.109 32 21.9995C32 21.89 31.9784 21.7816 31.9365 21.6804C31.8945 21.5793 31.8331 21.4874 31.7556 21.41L24.2558 13.9102C24.0995 13.7539 23.8874 13.666 23.6663 13.666C23.4452 13.666 23.2331 13.7539 23.0767 13.9102C22.9204 14.0666 22.8325 14.2787 22.8325 14.4998C22.8325 14.7209 22.9204 14.933 23.0767 15.0893L29.1546 21.1662H12.8333C12.6123 21.1662 12.4003 21.254 12.2441 21.4103C12.0878 21.5666 12 21.7785 12 21.9995Z" stroke="#F5F5F7" stroke-width="1.7"/>
</svg>
