<svg width="620" height="354" viewBox="0 0 620 354" fill="none" xmlns="http://www.w3.org/2000/svg">
<rect y="168.75" width="620" height="185" fill="#DACDCD"/>
<path d="M553.541 331.306V242.463L568.69 232.454H553.541V192.832L564.235 187.21L553.541 187.279V184.811L553.472 184.742V179.533L552.375 179.807C552.307 179.807 550.798 180.218 549.496 181.452L535.991 170.415V165.479L534.826 165.822C534.757 165.822 533.524 166.233 532.495 167.467L524.063 160.612H521.733V160.407L527.354 158.898C528.314 158.624 528.656 157.939 528.588 157.39C528.588 156.842 528.176 156.156 527.08 155.951L521.253 154.991L513.095 144.503L504.937 154.785L499.111 155.745C498.014 155.951 497.603 156.568 497.603 157.185C497.603 157.733 497.877 158.419 498.836 158.693L504.458 160.201V160.544H503.087L495.066 167.262C494.106 166.234 493.009 165.891 492.941 165.891L491.776 165.548V170.072L478.956 180.835C477.86 180.081 476.9 179.807 476.831 179.807L475.735 179.533V183.577L475.666 183.646L475.529 187.964L462.024 188.101L475.392 193.106L474.363 232.523H456.06L474.089 242.669V282.428H391.142V228.684L410.748 213.328H356.935V167.81L372.976 161.092L356.935 161.298L356.866 101.11L373.387 94.1858L356.935 94.3914V89.7985H356.866V82.3264L356.935 81.161L355.769 81.3667C355.427 81.4352 353.576 81.7094 351.656 83.0119L324.51 41.8809H319.78V37.7678L323.413 34.3403C324.03 33.7233 324.373 32.8321 324.236 31.941C324.098 31.0498 323.619 30.2957 322.796 29.8159L319.368 27.8964L312.308 0.75L304.973 27.8964L300.791 29.953C300.037 30.2957 299.488 31.1183 299.42 32.0095C299.351 32.9692 299.694 33.8604 300.379 34.4088L304.698 37.905V41.8809H299.968L272.959 82.8748C271.862 82.1207 270.491 81.5723 268.846 81.2981L267.68 81.0924L267.749 82.2578V89.7985H267.68V94.3914L251.228 94.1858L267.68 101.041V161.298L250.817 161.092L267.68 168.153V213.26H213.867L233.473 228.615V282.36H150.731V242.6L168.761 232.454H150.457L149.429 193.037L162.797 188.033L149.086 187.896L149.018 184.4H148.949V179.67L147.784 180.012C147.715 180.012 146.961 180.287 146.07 180.904L134.073 170.826V165.891L132.908 166.233C132.839 166.233 131.606 166.645 130.577 167.879L121.734 160.475H120.363V160.338L125.984 158.83C126.944 158.556 127.287 157.87 127.218 157.322C127.218 156.773 126.807 156.088 125.71 155.882L119.883 154.922L111.726 144.434L103.568 154.717L97.741 155.677C96.6442 155.882 96.2329 156.499 96.2329 157.116C96.2329 157.665 96.507 158.35 97.4668 158.624L103.088 160.132V160.544H100.757L92.3254 167.399C91.3657 166.508 90.4746 166.165 90.3375 166.165L89.1721 165.822V169.935L75.0505 181.521C73.8851 180.492 72.5826 180.149 72.5141 180.081L71.4172 179.807V185.291H71.3486V187.142L60.5176 187.073L71.2116 192.694V232.317H56.0618L71.2116 242.326V331.237H31.7944V334.596H74.4335V244.108H147.373V285.65H236.832V229.438L312.376 230.329L387.851 229.438V285.65H477.311V244.108H550.25V334.596H588.913V331.237H553.541V331.306ZM107.887 172.54H115.29H130.714L143.739 183.508C143.602 183.851 143.465 184.194 143.328 184.537L115.907 184.674C115.359 178.093 111.863 176.928 111.726 176.859L111.451 176.79L111.177 176.859C111.04 176.928 107.475 178.093 106.996 184.742H76.6956C76.6956 184.674 76.6272 184.605 76.6272 184.537L91.2972 172.609L107.887 172.54ZM117.073 155.128L106.173 154.991L108.367 152.249H114.879L117.073 155.128ZM113.439 150.467H109.738L111.589 148.136L113.439 150.467ZM101.306 157.459L104.665 156.91L104.733 156.773L118.444 156.91L118.581 157.048L121.94 157.596L118.101 158.624V158.898L105.213 158.761V158.419L101.306 157.459ZM105.145 159.927L118.032 160.064V160.544L105.145 160.612V159.927ZM101.854 163.971L120.5 163.903L128.658 170.758H115.29C114.81 165.754 112.068 164.794 111.931 164.794L111.657 164.725L111.383 164.794C111.246 164.862 108.504 165.754 108.024 170.758H94.0392C94.0392 170.621 93.9708 170.552 93.9708 170.484L101.854 163.971ZM74.5706 186.456H106.996H110.08H116.113L145.659 186.319L145.727 187.896L74.5706 187.347V186.456ZM74.4335 193.586H146.07L147.098 232.454H138.118V219.635H128.109V232.454H123.448V204.554H96.3015V232.454H90.8859V219.635H80.8774V232.454H74.4335V193.586ZM136.336 232.454H129.96V221.418H136.336V232.454ZM121.666 232.454H98.0839V206.336H121.666V232.454ZM89.1037 232.454H82.7282V221.418H89.1037V232.454ZM353.507 101.589L353.576 148.41H271.039V101.589H353.507ZM271.039 151.769H353.576V156.568H271.039V151.769ZM318.614 89.7299C317.723 80.3384 312.787 78.6246 312.582 78.556L312.308 78.4875L312.033 78.556C311.828 78.6246 306.823 80.3384 306.001 89.7299H304.15L304.356 82.8748C304.356 82.3949 304.356 81.9836 304.287 81.5723C304.218 80.2013 304.15 79.6529 307.235 77.7334L310.114 76.0196C311.005 75.4712 311.759 74.7171 312.308 73.7574C312.856 74.7171 313.541 75.4712 314.501 76.0196L317.38 77.7334C320.465 79.5843 320.465 80.2013 320.328 81.5723C320.328 81.9151 320.259 82.3949 320.259 82.8748L320.465 89.7299H318.614ZM326.155 50.3128L349.257 85.3426C348.434 86.4395 347.817 87.879 347.474 89.7299H322.247L322.042 82.8748C322.042 82.4635 322.042 82.1207 322.11 81.778C322.248 79.6529 321.905 78.4875 318.272 76.2938L315.392 74.58C314.707 74.1687 314.09 73.5518 313.747 72.7291L312.308 69.7129L310.868 72.7291C310.525 73.4832 309.908 74.1002 309.223 74.58L306.343 76.2938C302.71 78.4875 302.367 79.6529 302.505 81.778C302.505 82.1207 302.573 82.4635 302.573 82.8748L302.368 89.7299H277.141C276.935 88.496 276.455 86.8508 275.427 85.2741L298.529 50.3128H326.155ZM316.078 27.965L308.469 28.1021L310.525 20.5614H314.158L316.078 27.965ZM313.61 18.7791H310.936L312.308 13.7748L313.61 18.7791ZM303.327 32.4208L307.852 30.2272L307.92 29.953L316.489 29.7473L316.626 30.1586L320.671 32.4208L316.695 36.1912C313.884 36.1912 310.182 36.1912 308.057 36.1912L303.327 32.4208ZM308.126 37.9735C308.674 37.9735 309.36 37.9735 310.045 37.9735C312.239 37.9735 314.844 37.9735 316.489 37.9735V41.8809H308.057V37.9735H308.126ZM271.039 93.089H353.576V94.3229L312.308 94.8713L271.039 94.3229V93.089ZM271.039 158.35H353.576V161.298L311.896 161.846L271.039 161.298V158.35ZM271.039 168.496H353.576V213.26H325.949V190.501H300.791V213.26H271.039V168.496ZM322.659 213.26H304.15V193.86H322.659V213.26ZM509.942 172.06H517.345H532.701L547.576 184.194H518.305C517.962 177.133 514.192 175.831 514.055 175.762L513.781 175.694L513.506 175.762C513.369 175.831 509.667 177.065 509.256 184.194H481.219C481.15 183.851 481.013 183.577 480.944 183.303L494.381 172.06H509.942ZM518.442 155.128L507.542 154.991L509.805 152.18H516.18L518.442 155.128ZM514.74 150.398H511.176L512.958 148.136L514.74 150.398ZM502.675 157.459L506.034 156.91L506.103 156.773L519.813 156.91L519.95 157.048L523.309 157.596L519.47 158.624V158.898L506.583 158.761V158.419L502.675 157.459ZM506.514 159.927L519.402 160.064V160.612L506.514 160.544V159.927ZM504.183 163.903L522.829 163.971L530.576 170.278H517.277C516.797 165.274 514.055 164.314 513.918 164.314L513.644 164.245L513.369 164.314C513.232 164.383 510.49 165.274 510.01 170.278H496.506L504.183 163.903ZM478.751 186.045H549.77L550.181 186.388V187.347L478.682 187.896L478.751 186.045ZM478.545 193.586H550.181V232.454H542.367V219.292H532.358V232.454H527.697V204.211H500.55V232.454H495.135V219.292H485.126V232.454H477.517L478.545 193.586ZM534.209 232.112V221.075H540.584V232.112H534.209ZM502.401 232.112V205.993H525.983V232.112H502.401ZM486.977 232.112V221.075H493.352V232.112H486.977Z" fill="#96454A"/>
<path d="M312.32 144.148C322.671 144.148 331.103 135.442 331.103 124.748C331.103 114.054 322.671 105.348 312.32 105.348C301.969 105.348 293.537 114.054 293.537 124.748C293.537 135.442 301.969 144.148 312.32 144.148ZM312.32 108.707C320.82 108.707 327.744 115.905 327.744 124.748C327.744 133.591 320.82 140.789 312.32 140.789C303.82 140.789 296.896 133.591 296.896 124.748C296.896 115.905 303.82 108.707 312.32 108.707Z" fill="#96454A"/>
<path d="M312.328 133.752C317.126 133.752 321.034 129.707 321.034 124.703C321.034 119.699 317.126 115.654 312.328 115.654C307.529 115.654 303.622 119.699 303.622 124.703C303.622 129.707 307.529 133.752 312.328 133.752Z" fill="#96454A"/>
<path d="M90.8864 204.502H80.8779V211.631H90.8864V204.502Z" fill="#96454A"/>
<path d="M137.861 204.502H127.853V211.631H137.861V204.502Z" fill="#96454A"/>
<path d="M495.206 204.15H485.197V211.28H495.206V204.15Z" fill="#96454A"/>
<path d="M542.099 204.15H532.091V211.28H542.099V204.15Z" fill="#96454A"/>
<path d="M326.576 184.921L326.644 190.268H331.786L331.923 184.509H338.983V183.275H287.295V184.852L294.63 184.784L294.699 190.268H300.252L300.32 184.921H326.576Z" fill="#96454A"/>
<path d="M333.214 176.312H293.66V179.809H333.214V176.312Z" fill="#96454A"/>
<path d="M332.338 172.094H295.252V173.876H332.338V172.094Z" fill="#96454A"/>
<path d="M95.5508 333.085H98.8413V312.451H120.915V333.085H124.274V309.092H95.5508V333.085Z" fill="#96454A"/>
<path d="M499.249 333.085H502.608V312.451H524.682V333.085H527.972V309.092H499.249V333.085Z" fill="#96454A"/>
<path d="M267.744 333.085H271.103H271.24H353.365H356.723V309.092H267.881L267.744 333.085Z" fill="#96454A"/>
<path d="M268.306 252.1H250.551V286.444H268.306V252.1Z" fill="#96454A"/>
<path d="M353.388 286.444H371.143V252.1H353.388V286.444Z" fill="#96454A"/>
<path d="M293.537 240.77V286.356H331.034V240.77H293.537ZM327.744 282.997H296.896V244.129H327.744V282.997Z" fill="#96454A"/>
<path d="M95.9634 288.609H125.989V258.172H95.9634V288.609Z" fill="#96454A"/>
<path d="M498.753 288.609H528.779V258.172H498.753V288.609Z" fill="#96454A"/>
</svg>
