<svg width="100" height="41" viewBox="0 0 100 41" fill="none" xmlns="http://www.w3.org/2000/svg">
<path d="M91.0729 25.9161C91.1614 25.4962 91.3825 25.1662 91.777 24.9862C92.0211 24.8751 92.1025 24.7233 92.1007 24.4551C92.0919 21.2067 92.0901 17.9565 92.1025 14.708C92.1043 14.3463 92.0052 14.2987 91.6903 14.4204C89.8983 15.1209 88.0993 15.8055 86.3073 16.5043C85.8367 16.6878 85.345 16.8237 84.8974 17.0689C84.6374 17.2119 84.5012 17.0248 84.3579 16.8325C83.6361 15.8726 83.0488 14.8139 82.1608 13.9758C81.0446 12.9206 79.8381 11.996 78.5114 11.2161C76.8131 10.2156 74.9982 9.52568 73.0664 9.1816C70.742 8.76694 68.4228 8.8534 66.1391 9.49568C63.1035 10.3497 60.4571 11.8742 58.2777 14.161C57.54 14.9356 56.9244 15.8108 56.4556 16.7778C56.323 17.0495 56.2115 17.1254 55.8949 17.0089C54.1506 16.3667 52.4153 15.705 50.6887 15.0168C48.8968 14.304 47.0853 13.6405 45.2827 12.9559C44.0957 12.5042 42.907 12.0542 41.7129 11.6007C41.7465 11.4013 41.9358 11.3749 42.0702 11.3237C45.6188 9.95974 49.1674 8.59755 52.7195 7.24417C56.0611 5.97197 59.4098 4.71388 62.7532 3.44167C65.1325 2.53648 67.5065 1.62423 69.8805 0.706691C70.2201 0.574353 70.5209 0.609644 70.8605 0.738452C77.8568 3.41344 84.855 6.07607 91.8548 8.74224C94.2642 9.65978 96.6736 10.5756 99.1802 11.5302C98.0003 11.9872 96.9017 12.393 95.8191 12.8376C94.9346 13.1994 94.0024 13.4429 93.1692 13.9246C93.0914 14.0463 93.1232 14.1804 93.1232 14.311C93.1214 17.6865 93.1214 21.062 93.1232 24.4375C93.1232 24.5663 93.0896 24.7022 93.1727 24.8204C93.668 25.0868 94.0165 25.4785 94.1917 26.0185C94.2235 26.2443 94.2235 26.4702 94.1917 26.6961C93.9316 27.1284 93.9122 27.5748 94.0608 28.0547C94.2571 28.6882 94.4146 29.334 94.5879 29.9763C94.6304 30.1562 94.5348 30.2145 94.3739 30.2145C93.1356 30.2109 91.8991 30.2251 90.6608 30.2039C90.6395 30.2039 90.6183 30.1562 90.5971 30.1315C90.8023 29.3393 90.9615 28.5294 91.2304 27.7583C91.3684 27.3595 91.0747 27.1213 91.0676 26.7966C91.0234 26.5037 91.0181 26.2091 91.0729 25.9161Z" fill="white"/>
<path d="M55.0881 26.0096C54.9962 23.647 55.4844 21.4043 56.4379 19.241C57.0075 17.9494 57.7257 16.7478 58.6473 15.6997C59.8202 14.3657 61.1452 13.187 62.7107 12.2924C64.4461 11.3007 66.3035 10.6532 68.2724 10.4008C71.7467 9.95796 75.0476 10.5649 78.0921 12.3295C80.9348 13.9775 83.0328 16.3172 84.3932 19.3045C85.076 20.8044 85.5006 22.373 85.6421 24.021C85.6775 24.4304 85.7146 24.8362 85.7288 25.2474C85.7376 25.4856 85.6881 25.6109 85.4086 25.6056C84.5984 25.5915 83.7882 25.5967 82.9798 25.6038C82.7622 25.6056 82.6702 25.5544 82.6454 25.3074C82.5322 24.2222 82.4473 23.1353 82.1147 22.0783C81.6495 20.6014 80.956 19.2587 79.9884 18.0464C78.835 16.5995 77.4517 15.4191 75.7871 14.6251C74.3117 13.921 72.7568 13.494 71.0851 13.4093C69.2117 13.314 67.4392 13.6017 65.7215 14.3022C63.2202 15.3238 61.2884 17.0142 59.9086 19.3257C58.8508 21.099 58.2299 23.0065 58.2369 25.0903C58.1379 25.235 58.2705 25.4432 58.1096 25.572C57.4975 25.7573 56.8695 25.6444 56.2486 25.655C55.817 25.6656 55.403 25.655 55.0881 26.0096Z" fill="white"/>
<path d="M55.088 26.0092C55.1481 25.6052 55.3604 25.4817 55.7814 25.5046C56.5704 25.5487 57.3647 25.5152 58.1554 25.5134C58.2279 25.8063 58.189 26.1028 58.1766 26.3974C58.0298 28.7107 57.4354 30.904 56.2944 32.9261C54.4565 36.1851 51.7764 38.4966 48.2827 39.8588C46.1847 40.6758 43.9894 40.9916 41.7622 40.824C38.9053 40.6105 36.2642 39.7018 33.9203 38.0079C30.7803 35.7405 28.8256 32.6932 27.9057 28.9613C27.6669 27.9926 27.5749 27.0027 27.5608 26.0057C27.5378 25.8222 27.4776 25.6352 27.6121 25.4658C28.2808 25.2435 28.9707 25.3934 29.65 25.367C29.9808 25.3546 30.3399 25.2699 30.637 25.5205C30.6335 27.5126 31.0598 29.4165 32.0098 31.1616C33.9698 34.7612 36.9736 36.9439 41.0564 37.6109C41.4845 37.6814 41.9055 37.6938 42.3318 37.6991C42.7104 37.7626 43.0889 37.7732 43.4657 37.692C44.9446 37.7026 46.3174 37.2721 47.6724 36.7304C48.7303 36.3069 49.6837 35.7123 50.5558 35.0082C51.9728 33.8648 53.0696 32.4515 53.8745 30.8105C54.621 29.2948 54.9978 27.6891 55.088 26.0092Z" fill="white"/>
<path d="M30.6389 25.523C29.6164 25.5212 28.5957 25.5177 27.5733 25.5159C27.4795 25.3183 27.5945 25.0942 27.4936 24.8966C27.4689 23.4197 27.0797 22.0328 26.5048 20.6794C25.7742 18.9608 24.6544 17.5298 23.2658 16.3105C21.5888 14.8371 19.6163 13.9196 17.421 13.5526C14.1254 13.0003 11.0668 13.6532 8.31783 15.5729C5.70149 17.3992 4.07226 19.896 3.3735 22.9997C3.24083 23.5908 3.13115 24.1872 3.16653 24.7978C3.08693 24.9601 3.14531 25.1383 3.117 25.3059C3.08162 25.5 3.01263 25.6165 2.76497 25.6112C1.95655 25.5918 1.14635 25.5918 0.336153 25.6094C0.0177353 25.6165 4.58145e-05 25.4542 4.58145e-05 25.2107C-0.00349216 23.9931 0.198172 22.8039 0.504207 21.6322C1.29494 18.6061 2.91003 16.0829 5.25748 14.0272C7.44041 12.1163 9.96652 10.9217 12.8447 10.4735C13.7557 10.3324 14.6703 10.2565 15.5919 10.2794C18.9424 10.3624 21.9673 11.3858 24.6314 13.4238C27.4724 15.5959 29.3157 18.4314 30.1984 21.8846C30.5009 23.0738 30.6654 24.2878 30.6389 25.523Z" fill="white"/>
<path d="M11.2888 4.04462C11.5966 1.95898 13.0702 0.716765 14.9329 0.589721C17.0805 0.443267 18.7805 1.69606 19.2528 3.66878C19.2917 3.82758 19.3342 3.98639 19.3731 4.14519C19.4049 4.47163 19.4102 4.7963 19.3696 5.12097C19.1219 6.35259 18.547 7.35483 17.4573 8.05886C16.0792 8.94641 13.8998 8.88112 12.635 7.68832C11.8991 6.99487 11.3967 6.23084 11.2906 5.22154C11.2428 4.83159 11.2464 4.4381 11.2888 4.04462Z" fill="white"/>
</svg>
