<svg width="32" height="32" viewBox="0 0 32 32" fill="none" xmlns="http://www.w3.org/2000/svg">
<path d="M26.6665 5.33398H5.33317C3.8665 5.33398 2.67984 6.53398 2.67984 8.00065L2.6665 24.0007C2.6665 25.4673 3.8665 26.6673 5.33317 26.6673H26.6665C28.1332 26.6673 29.3332 25.4673 29.3332 24.0007V8.00065C29.3332 6.53398 28.1332 5.33398 26.6665 5.33398ZM26.1332 11.0007L16.7065 16.894C16.2798 17.1607 15.7198 17.1607 15.2932 16.894L5.8665 11.0007C5.53317 10.7873 5.33317 10.4273 5.33317 10.0407C5.33317 9.14732 6.3065 8.61398 7.0665 9.08065L15.9998 14.6673L24.9332 9.08065C25.6932 8.61398 26.6665 9.14732 26.6665 10.0407C26.6665 10.4273 26.4665 10.7873 26.1332 11.0007Z" fill="#F5F5F7"/>
</svg>
