<svg width="32" height="32" viewBox="0 0 32 32" fill="none" xmlns="http://www.w3.org/2000/svg">
<path d="M25.6288 20.3568L22.2422 19.9701C21.4288 19.8768 20.6288 20.1568 20.0555 20.7301L17.6022 23.1834C13.8288 21.2634 10.7355 18.1834 8.81549 14.3968L11.2822 11.9301C11.8555 11.3568 12.1355 10.5568 12.0422 9.74344L11.6555 6.38344C11.4955 5.03677 10.3622 4.02344 9.00216 4.02344H6.69549C5.18882 4.02344 3.93549 5.27677 4.02882 6.78344C4.73549 18.1701 13.8422 27.2634 25.2155 27.9701C26.7222 28.0634 27.9755 26.8101 27.9755 25.3034V22.9968C27.9888 21.6501 26.9755 20.5168 25.6288 20.3568Z" fill="#F5F5F7"/>
</svg>
