<svg width="53" height="41" viewBox="0 0 53 41" fill="none" xmlns="http://www.w3.org/2000/svg">
<path d="M4.62973 36.9269C1.61737 33.7273 5.72205e-05 30.1388 5.72205e-05 24.3218C5.72205e-05 14.0856 7.18292 4.91108 17.6355 0.375L20.2472 4.40512C10.4936 9.68114 8.58673 16.5277 7.82341 20.8444C9.39393 20.0314 11.4499 19.7477 13.4679 19.9348C18.7439 20.4233 22.9027 24.7546 22.9027 30.1388C22.9027 32.8536 21.8243 35.4572 19.9046 37.3769C17.985 39.2965 15.3814 40.375 12.6666 40.375C9.52846 40.375 6.52488 38.9419 4.62973 36.9269ZM33.8759 36.9269C30.8636 33.7273 29.2462 30.1388 29.2462 24.3218C29.2462 14.0856 36.4291 4.91108 46.8817 0.375L49.4934 4.40512C39.7398 9.68114 37.8329 16.5277 37.0725 20.8444C38.643 20.0314 40.699 19.7477 42.7141 19.9348C47.9901 20.4233 52.146 24.7546 52.146 30.1388C52.146 32.8536 51.0675 35.4572 49.1479 37.3769C47.2282 39.2965 44.6246 40.375 41.9098 40.375C38.7717 40.375 35.7681 38.9419 33.873 36.9269H33.8759Z" fill="#701462"/>
</svg>
